<?xml version="1.0" encoding="utf-8"?>
<!-- Generator: Adobe Illustrator 23.1.0, SVG Export Plug-In . SVG Version: 6.00 Build 0)  -->
<svg version="1.1" id="Layer_1" xmlns="http://www.w3.org/2000/svg" xmlns:xlink="http://www.w3.org/1999/xlink" x="0px" y="0px"
	 viewBox="0 0 954 331" style="enable-background:new 0 0 954 331;" xml:space="preserve">
<style type="text/css">
	.st0{fill-rule:evenodd;clip-rule:evenodd;fill:#E41813;}
	.st1{fill-rule:evenodd;clip-rule:evenodd;fill:#373434;}
</style>
<polygon class="st0" points="53,74.1 52.7,74.1 27.5,2.2 4.7,2.2 42.1,101.1 63,101.1 100.5,2.2 78.2,2.2 "/>
<path class="st0" d="M164.9,61.4c5.4-2.1,10-5.9,13-10.9c3.1-5.3,4.7-11.3,4.5-17.4c0-9.3-2.9-16.8-8.6-22.4s-13.9-8.5-24.4-8.5
	h-44.9v98.9h20.3V63.6h19.5l18.5,37.5h23.5L164.9,61.4z M149.4,45h-24.5V20.9h24.5c4.1,0,7.2,1.1,9.4,3.3c2.3,2.4,3.4,5.6,3.3,8.9
	c0,3.7-1.1,6.6-3.2,8.7S153.6,45,149.4,45L149.4,45L149.4,45z"/>
<path class="st0" d="M238.3,0.1c-15,0-27.3,4.9-36.9,14.6s-14.5,22.1-14.5,36.9c0,14.9,4.8,27.2,14.5,36.9s22,14.6,36.9,14.6
	c15,0,27.3-4.9,36.9-14.6s14.5-22.1,14.5-36.9c0-14.9-4.8-27.2-14.5-36.9S253.2,0.1,238.3,0.1z M238.3,83.8c-8.8,0-16-2.9-21.6-8.8
	s-8.4-13.7-8.4-23.3c0-9.7,2.8-17.4,8.4-23.3s12.8-8.8,21.6-8.8c8.8,0,16,2.9,21.6,8.8c5.6,5.9,8.4,13.7,8.4,23.3
	c0,9.7-2.8,17.4-8.4,23.3C254.3,80.9,247.1,83.8,238.3,83.8z"/>
<path class="st0" d="M345.8,0.1c-15,0-27.3,4.9-36.9,14.6c-9.7,9.8-14.5,22.1-14.5,36.9c0,14.9,4.8,27.2,14.5,36.9
	c9.7,9.8,22,14.6,36.9,14.6c15,0,27.3-4.9,36.9-14.6c9.7-9.8,14.5-22.1,14.5-36.9c0-14.9-4.8-27.2-14.5-36.9
	C373.1,5,360.8,0.1,345.8,0.1z M345.8,83.8c-8.8,0-16-2.9-21.6-8.8s-8.4-13.7-8.4-23.3c0-9.7,2.8-17.4,8.4-23.3s12.8-8.8,21.6-8.8
	c8.8,0,16,2.9,21.6,8.8c5.6,5.9,8.4,13.7,8.4,23.3c0,9.7-2.8,17.4-8.4,23.3C361.8,80.9,354.6,83.8,345.8,83.8z"/>
<path class="st0" d="M453.3,0.1c-15,0-27.3,4.9-36.9,14.6c-9.7,9.8-14.5,22.1-14.5,36.9c0,14.9,4.8,27.2,14.5,36.9
	c9.7,9.8,22,14.6,36.9,14.6c15,0,27.3-4.9,36.9-14.6c9.7-9.8,14.5-22.1,14.5-36.9c0-14.9-4.8-27.2-14.5-36.9
	C480.6,5,468.3,0.1,453.3,0.1z M453.3,83.8c-8.8,0-16-2.9-21.6-8.8s-8.4-13.7-8.4-23.3c0-9.7,2.8-17.4,8.4-23.3
	c5.6-5.9,12.8-8.8,21.6-8.8c8.8,0,16,2.9,21.6,8.8c5.6,5.9,8.4,13.7,8.4,23.3c0,9.7-2.8,17.4-8.4,23.3
	C469.4,80.9,462.2,83.8,453.3,83.8z"/>
<polygon class="st0" points="514.1,2.2 514.1,101.1 533.6,101.1 533.6,33.7 561.4,69.5 562,69.5 589.9,33.7 589.9,101.1 
	609.4,101.1 609.4,2.2 590.7,2.2 561.7,40.5 532.7,2.2 "/>
<rect x="653.8" y="2.2" class="st1" width="20.3" height="98.9"/>
<polygon class="st1" points="751,101.1 771.5,101.1 771.5,2.2 751.7,2.2 751.7,67.8 708.4,2.2 688.1,2.2 688.1,101.1 707.8,101.1 
	707.8,35.8 "/>
<polygon class="st1" points="775.7,2.2 775.7,21.3 802.8,21.3 802.8,101.1 823.2,101.1 823.2,21.3 850.3,21.3 850.3,2.2 "/>
<path class="st1" d="M901.3,0.1c-15,0-27.3,4.9-36.9,14.6s-14.5,22.1-14.5,36.9c0,14.9,4.8,27.2,14.5,36.9
	c9.7,9.8,22,14.6,36.9,14.6c15,0,27.3-4.9,36.9-14.6s14.5-22.1,14.5-36.9c0-14.9-4.8-27.2-14.5-36.9S916.3,0.1,901.3,0.1z
	 M901.3,83.8c-8.8,0-16-2.9-21.6-8.8s-8.4-13.7-8.4-23.3c0-9.7,2.8-17.4,8.4-23.3c5.6-5.9,12.8-8.8,21.6-8.8c8.8,0,16,2.9,21.6,8.8
	s8.4,13.7,8.4,23.3c0,9.7-2.8,17.4-8.4,23.3C917.3,80.9,910.1,83.8,901.3,83.8z"/>
<polygon class="st1" points="0.8,117.1 0.8,140.4 34,140.4 34,237.9 58.8,237.9 58.8,140.5 92,140.5 92,117.2 "/>
<polygon class="st1" points="172.5,117.1 172.5,165.3 121.9,165.3 121.9,117.1 97.1,117.1 97.1,237.9 121.9,237.9 121.9,188.1 
	172.5,188.1 172.5,237.9 197.3,237.9 197.3,117.1 "/>
<polygon class="st1" points="239.1,215.1 239.1,188.1 298.7,188.1 298.7,165.3 239.1,165.3 239.1,139.9 301.2,139.9 301.2,117.1 
	214.3,117.1 214.3,237.9 301.2,237.9 301.2,215.1 "/>
<polygon class="st0" points="371.6,188.1 424.3,188.1 424.3,165.3 371.6,165.3 371.6,139.9 426.9,139.9 426.9,117.1 346.8,117.1 
	346.8,237.9 371.6,237.9 "/>
<path class="st0" d="M538.1,188.2v-71.1h-24.8v71.8c0,8.8-2.2,15.8-6.5,20.9c-4.4,5.1-11,7.7-19.8,7.7c-8.8,0-15.5-2.6-19.8-7.7
	c-4.4-5.1-6.5-12.1-6.5-20.9v-71.8h-24.8v71.1c0,16.9,4.9,29.8,14.6,38.8c9.8,9,21.9,13.4,36.6,13.4c14.6,0,26.8-4.5,36.6-13.4
	S538.1,205.1,538.1,188.2L538.1,188.2L538.1,188.2z"/>
<polygon class="st0" points="542.9,117.1 542.9,140.4 576,140.4 576,237.9 600.9,237.9 600.9,140.4 634,140.4 634,117.1 
	542.9,117.1 "/>
<path class="st0" d="M741.2,188.2v-71.1h-24.8v71.8c0,8.8-2.2,15.8-6.5,20.9c-4.4,5.1-11,7.7-19.8,7.7c-8.8,0-15.4-2.6-19.8-7.7
	c-4.4-5.1-6.5-12.1-6.5-20.9v-71.8h-24.8v71.1c0,16.9,4.9,29.8,14.6,38.8c9.8,9,21.9,13.4,36.6,13.4c14.6,0,26.8-4.5,36.6-13.4
	S741.2,205.1,741.2,188.2L741.2,188.2L741.2,188.2z"/>
<path class="st0" d="M831.5,189.4c6.6-2.6,12.2-7.2,15.9-13.3c3.7-6,5.5-13.1,5.5-21.3c0-11.3-3.5-20.5-10.5-27.4
	s-16.9-10.4-29.8-10.4h-54.8v120.8h24.8v-45.8h23.8l22.6,45.8h28.7L831.5,189.4z M812.6,169.4h-29.9v-29.4h29.9
	c5,0,8.8,1.4,11.5,4.1c2.7,2.7,4,6.3,4,10.9c0,4.5-1.3,8.1-3.9,10.6C821.6,168.1,817.7,169.4,812.6,169.4L812.6,169.4L812.6,169.4z"
	/>
<polygon class="st0" points="888.8,215.1 888.8,188.1 948.3,188.1 948.3,165.3 888.8,165.3 888.8,139.9 950.9,139.9 950.9,117.1 
	864,117.1 864,237.9 950.9,237.9 950.9,215.1 888.8,215.1 "/>
<path class="st1" d="M53.8,274.4l4.4-20.7H47l-4.4,20.7h-9.3l4.4-20.7H26.4L22,274.4H11.7l-2.3,11h10.4L17.2,297H6.9l-2.3,11h10.4
	l-4.4,20.7h11.2l4.4-20.7h9.3L31,328.8h11.2l4.4-20.7h9.5l2.3-11H49l2.5-11.6H61l2.3-11H53.8z M40.2,285.4L37.8,297h-9.3l2.5-11.6
	H40.2L40.2,285.4z"/>
<polygon class="st1" points="116,253.7 116,283.6 84.6,283.6 84.6,253.7 69.1,253.7 69.1,328.8 84.6,328.8 84.6,297.8 116,297.8 
	116,328.8 131.4,328.8 131.4,253.7 116,253.7 "/>
<polygon class="st1" points="157.5,314.6 157.5,297.8 194.5,297.8 194.5,283.6 157.5,283.6 157.5,267.8 196.1,267.8 196.1,253.7 
	142,253.7 142,328.8 196.1,328.8 196.1,314.6 157.5,314.6 "/>
<path class="st1" d="M249.8,298.6c4.1-1.6,7.6-4.5,9.9-8.3c2.4-4,3.6-8.6,3.4-13.2c0-7.1-2.2-12.7-6.6-17
	c-4.4-4.3-10.5-6.5-18.5-6.5H204v75.1h15.4v-28.5h14.8l14.1,28.5h17.9L249.8,298.6z M238.1,286.1h-18.6v-18.3h18.6
	c3.1,0,5.5,0.8,7.1,2.5c1.7,1.8,2.6,4.3,2.5,6.8c0.1,2.4-0.7,4.8-2.4,6.6C243.7,285.4,241.3,286.2,238.1,286.1L238.1,286.1
	L238.1,286.1z"/>
<path class="st1" d="M305.6,252.1c-11.4,0-20.7,3.7-28,11.1c-7.3,7.4-11,16.8-11,28c0,11.3,3.7,20.6,11,28
	c7.3,7.4,16.7,11.1,28,11.1c11.4,0,20.7-3.7,28-11.1c7.3-7.4,11-16.8,11-28c0-11.3-3.7-20.6-11-28
	C326.3,255.8,316.9,252.1,305.6,252.1L305.6,252.1z M305.6,315.7c-6.7,0-12.2-2.2-16.4-6.7s-6.3-10.4-6.3-17.7
	c0-7.3,2.1-13.2,6.3-17.7s9.7-6.7,16.4-6.7c6.7,0,12.2,2.2,16.4,6.7s6.3,10.4,6.3,17.7c0,7.3-2.1,13.2-6.3,17.7
	S312.3,315.7,305.6,315.7L305.6,315.7z"/>
<polygon class="st0" points="399.3,275.7 414.6,328.8 430.9,328.8 453.9,253.7 437,253.7 423.2,306.7 423,306.7 408,253.7 
	391.1,253.7 376.1,306.8 375.8,306.8 361.9,253.7 344.5,253.7 367.6,328.8 383.6,328.8 398.9,275.6 "/>
<path class="st0" d="M493,252.1c-11.4,0-20.7,3.7-28,11.1c-7.3,7.4-11,16.8-11,28c0,11.3,3.7,20.6,11,28c7.3,7.4,16.7,11.1,28,11.1
	c11.4,0,20.7-3.7,28-11.1c7.3-7.4,11-16.8,11-28c0-11.3-3.7-20.6-11-28C513.7,255.8,504.3,252.1,493,252.1L493,252.1z M493,315.7
	c-6.7,0-12.2-2.2-16.4-6.7s-6.3-10.4-6.3-17.7c0-7.3,2.1-13.2,6.3-17.7s9.7-6.7,16.4-6.7c6.7,0,12.2,2.2,16.4,6.7
	c4.2,4.5,6.3,10.4,6.3,17.7s-2.1,13.2-6.3,17.7C505.1,313.4,499.7,315.7,493,315.7L493,315.7z"/>
<path class="st0" d="M584.9,298.6c4.1-1.6,7.6-4.5,9.9-8.3c2.4-4,3.6-8.6,3.4-13.2c0-7.1-2.2-12.7-6.6-17
	c-4.4-4.3-10.5-6.5-18.5-6.5h-34.1v75.1h15.4v-28.5h14.8l14.1,28.5h17.9L584.9,298.6z M573.2,286.1h-18.6v-18.3h18.6
	c3.1,0,5.5,0.8,7.1,2.5c1.7,1.8,2.6,4.3,2.5,6.8c0.1,2.4-0.7,4.8-2.4,6.6C578.7,285.4,576.3,286.2,573.2,286.1L573.2,286.1
	L573.2,286.1z"/>
<polygon class="st0" points="620.6,314.6 620.6,253.7 605.1,253.7 605.1,328.8 653.9,328.8 653.9,314.6 620.6,314.6 "/>
<path class="st0" d="M713.8,318.4c6.9-6.9,10.4-16,10.4-27.2c0-11.2-3.5-20.3-10.4-27.2c-6.9-6.9-16.7-10.4-29.1-10.4h-27v75.1h27
	C697.2,328.8,706.9,325.3,713.8,318.4L713.8,318.4z M684.3,314.6h-11.1v-46.8h11.1c8,0,13.9,2.1,17.8,6.2c3.9,4.1,5.9,9.9,5.9,17.2
	c0,7.3-2,13.1-5.9,17.2S692.2,314.6,684.3,314.6L684.3,314.6L684.3,314.6z"/>
<path class="st1" d="M781.1,314.6h-30.7l17-15c4.6-4.1,7.8-7.9,9.6-11.5c1.9-4,2.9-8.4,2.8-12.8c0-6.8-2.3-12.4-7-16.7
	c-4.7-4.3-10.9-6.5-18.6-6.5c-7.5,0-13.7,2.2-18.4,6.7c-4.7,4.5-7,10.4-7,17.6c0,1.5,0.1,2.9,0.3,4.3h15.2l-0.3-4.1
	c-0.1-2.7,0.8-5.4,2.6-7.5c1.7-1.9,4.2-2.9,7.6-2.9c2.7-0.1,5.3,0.8,7.3,2.6c1.9,1.7,2.9,4.2,2.9,6.7c0,4.5-1.9,8.4-5.6,12
	l-29.5,28.6v12.6h51.7V314.6z"/>
<path class="st1" d="M838.3,291.2c0-11.8-2.3-21.2-7-28.4c-4.7-7.2-11.4-10.7-20.3-10.7c-8.9,0-15.7,3.6-20.3,10.7
	c-4.7,7.2-7,16.6-7,28.4c0,11.8,2.3,21.3,7,28.4c4.7,7.2,11.4,10.7,20.3,10.7c8.9,0,15.7-3.6,20.3-10.7
	C836,312.5,838.3,303,838.3,291.2L838.3,291.2z M822.7,291.2c0,8.5-1,14.7-2.9,18.6s-4.8,5.9-8.8,5.9c-4,0-6.9-2-8.8-5.9
	c-1.9-4-2.9-10.2-2.9-18.6c0-8.5,1-14.7,2.9-18.6c1.9-3.9,4.8-5.9,8.8-5.9c4,0,6.9,2,8.8,5.9C821.7,276.6,822.7,282.8,822.7,291.2
	L822.7,291.2z"/>
<path class="st1" d="M893.7,314.6H863l17-15c4.6-4.1,7.8-7.9,9.6-11.5c1.9-4,2.9-8.4,2.8-12.8c0-6.8-2.3-12.4-7-16.7
	c-4.7-4.3-10.9-6.5-18.6-6.5c-7.5,0-13.7,2.2-18.4,6.7c-4.7,4.5-7,10.4-7,17.6c0,1.5,0.1,2.9,0.3,4.3H857l-0.3-4.1
	c-0.1-2.7,0.8-5.4,2.6-7.5c1.7-1.9,4.2-2.9,7.6-2.9c2.7-0.1,5.3,0.8,7.3,2.6c1.9,1.7,2.9,4.2,2.9,6.7c0,4.5-1.9,8.4-5.6,12
	l-29.5,28.6v12.6h51.7L893.7,314.6L893.7,314.6z"/>
<path class="st1" d="M950.9,291.2c0-11.8-2.3-21.2-7-28.4c-4.7-7.2-11.4-10.7-20.3-10.7c-8.9,0-15.7,3.6-20.3,10.7
	c-4.7,7.2-7,16.6-7,28.4c0,11.8,2.3,21.3,7,28.4c4.7,7.2,11.4,10.7,20.3,10.7c8.9,0,15.7-3.6,20.3-10.7
	C948.6,312.5,950.9,303,950.9,291.2L950.9,291.2z M935.3,291.2c0,8.5-1,14.7-2.9,18.6s-4.8,5.9-8.8,5.9c-4,0-6.9-2-8.8-5.9
	c-1.9-4-2.9-10.2-2.9-18.6c0-8.5,1-14.7,2.9-18.6s4.8-5.9,8.8-5.9c3.9,0,6.9,2,8.8,5.9C934.3,276.6,935.3,282.8,935.3,291.2
	L935.3,291.2z"/>
</svg>
